{"title":"Fireball 2009 DvdRiP.Mp4.FEEL-FREE","uid":5648751,"size":900668827,"categoryP":"video","categoryS":"movies","magnet":"?xt=urn:btih:125ff6c14333a754b841df6360cf929bf2fe34f0&amp;dn=Fireball+2009+DvdRiP.Mp4.FEEL-FREE&amp;tr=udp%3A%2F%2Ftracker.openbittorrent.com%3A80&amp;tr=udp%3A%2F%2Fopen.demonii.com%3A1337&amp;tr=udp%3A%2F%2Ftracker.coppersurfer.tk%3A6969&amp;tr=udp%3A%2F%2Fexodus.desync.com%3A6969","seeders":0,"leechers":1,"uploader":"hiest","files":9,"time":1277567048,"description":"Genre:Sci-Fi \nLanguage: English\nIMDb:http://www.imdb.com/title/tt1300579/ \nEncoder: Tony2\n...............................................\nGeneral\nComplete name : Fireball 2009 Dvd.RiP.Mp4.FEEL-FREE\nFormat : MPEG-4\nFormat profile : Base Media\nCodec ID : isom\nFile size : 858 MiB\nDuration : 1h 29mn\nOverall bit rate : 1 336 Kbps\n................................................\nVideo\nID : 1\nFormat : MPEG-4 Visual\nFormat profile : Simple@L1\nFormat settings, BVOP : No\nFormat settings, QPel : No\nFormat settings, GMC : No warppoints\nFormat settings, Matrix : Default (H.263)\nCodec ID : 20\nDuration : 1h 29mn\nBit rate mode : Variable\nBit rate : 1 192 Kbps\nWidth : 704 pixels\nHeight : 304 pixels\nDisplay aspect ratio : 2.35:1\nFrame rate mode : Constant\nFrame rate : 23.976 fps\nResolution : 24 bits\nColorimetry : 4:2:0\nScan type : Progressive\nBits/(Pixel*Frame) : 0.232\nStream size : 765 MiB (89%)\n..................................................\nAudio\nID : 2\nFormat : AAC\nFormat/Info : Advanced Audio Codec\nFormat version : Version 4\nFormat profile : LC\nFormat settings, SBR : No\nCodec ID : 40\nDuration : 1h 29mn\nBit rate mode : Variable\nBit rate : 139 Kbps\nChannel(s) : 6 channels\nChannel positions : Front: L C R, Rear: L R, LFE\nSampling rate : 48.0 KHz\nResolution : 16 bits\nStream size : 89.4 MiB (10%)\n...................................................\nPlot: \nInspector Ava Williams investigates a prison fire to its source, a prisoner seeking revenge against those who put him behind bars\n...................................................\nScreenshots\n &lt;a href=&quot;\nhttp://postimg.com/image/17000/16942.jpg&quot; rel=&quot;nofollow&quot; target=&quot;_NEW&quot;&gt;\nhttp://postimg.com/image/17000/16942.jpg&lt;/a&gt;\n &lt;a href=&quot;\nhttp://postimg.com/image/17000/16943.jpg&quot; rel=&quot;nofollow&quot; target=&quot;_NEW&quot;&gt;\nhttp://postimg.com/image/17000/16943.jpg&lt;/a&gt;\n\n...................................................","torrent":{"xt":"urn:btih:125ff6c14333a754b841df6360cf929bf2fe34f0","amp;dn":"Fireball+2009+DvdRiP.Mp4.FEEL-FREE","amp;tr":["udp%3A%2F%2Ftracker.openbittorrent.com%3A80","udp%3A%2F%2Fopen.demonii.com%3A1337","udp%3A%2F%2Ftracker.coppersurfer.tk%3A6969","udp%3A%2F%2Fexodus.desync.com%3A6969"],"infoHash":"125ff6c14333a754b841df6360cf929bf2fe34f0","infoHashBuffer":{"type":"Buffer","data":[18,95,246,193,67,51,167,84,184,65,223,99,96,207,146,155,242,254,52,240]},"announce":[],"urlList":[]}}